<?xml version="1.0" encoding="utf-8"?>
<!-- Generator: Adobe Illustrator 21.0.0, SVG Export Plug-In . SVG Version: 6.00 Build 0)  -->
<svg version="1.1" id="Laag_1" xmlns="http://www.w3.org/2000/svg" xmlns:xlink="http://www.w3.org/1999/xlink" x="0px" y="0px"
	 width="642px" height="1117px" viewBox="0 0 642 1117" enable-background="new 0 0 642 1117" xml:space="preserve">
<g id="fwrDev">
	<g id="fwrD-2eVerdieping">
		<polyline fill="#E9F5FD" points="364.4,950.5 428.5,885.1 428.5,855.6 530,855.6 530,846.5 640.2,846.5 640.2,110.7 532.9,110.7 
			532.9,107.6 324.5,107.6 324.5,116 291.9,116 291.9,62.9 282.6,62.9 282.6,9.1 167.3,9.1 167.3,2.8 96.6,2.8 1.8,107.1 1.8,169.7 
			7.4,169.7 7.4,999.6 62.4,999.6 62.4,1005.6 243.7,1005.6 243.7,949.5 		"/>
		<g id="fwrD2-01">
			<polygon fill="none" points="433.5,833.5 530.8,833.5 530.8,844.5 640.3,844.5 640.3,631.5 433.5,631.5 			"/>
			<path id="fwwD2-01-06" fill="#6BB53C" stroke="#FFFFFF" d="M568.7,814.5v-10.8c-6.3,0-11.3-5.1-11.3-11.2c0-6.1,5-11.2,11.3-11.2
				v-10.8h22.1v44.1L568.7,814.5L568.7,814.5z"/>
			<path id="fwwD2-01-03" fill="#6BB53C" stroke="#FFFFFF" d="M568.7,724.7v-10.8c-6.3,0-11.3-5.1-11.3-11.2c0-6.1,5-11.2,11.3-11.2
				v-10.8h22.1v44.1L568.7,724.7L568.7,724.7z"/>
			<path id="fwwD2-01-05" fill="#6BB53C" stroke="#FFFFFF" d="M634.9,814.6h-10.8c0,6.3-5.1,11.3-11.2,11.3c-6.1,0-11.2-5-11.2-11.3
				h-10.8v-22.1H635L634.9,814.6L634.9,814.6z"/>
			<path id="fwwD2-01-04" fill="#6BB53C" stroke="#FFFFFF" d="M591,770.3h10.8c0-6.3,5.1-11.3,11.2-11.3c6.1,0,11.2,5,11.2,11.3H635
				v22.1h-44.1L591,770.3L591,770.3z"/>
			<path id="fwwD2-01-02" fill="#6BB53C" stroke="#FFFFFF" d="M634.8,724.8h-10.7c0,6.3-5.1,11.3-11.2,11.3c-6.1,0-11.2-5-11.2-11.3
				h-10.8v-22.1H635v22.1H634.8z"/>
			<path id="fwwD2-01-01" fill="#6BB53C" stroke="#FFFFFF" d="M591,680.6h10.8c0-6.3,5.1-11.3,11.2-11.3c6.1,0,11.2,5,11.2,11.3H635
				v22.1h-44.1L591,680.6L591,680.6z"/>
			<!--<g id="zitje_3_">
				
					<ellipse transform="matrix(0.8328 -0.5536 0.5536 0.8328 -373.1685 414.3446)" fill="#9E9D9C" stroke="#FFFFFF" cx="499.3" cy="824.9" rx="7.7" ry="7.7"/>
				
					<ellipse transform="matrix(0.8328 -0.5536 0.5536 0.8328 -363.4808 411.4185)" fill="#9E9D9C" stroke="#FFFFFF" cx="499.3" cy="807.4" rx="7.7" ry="7.7"/>
				
					<ellipse transform="matrix(0.8328 -0.5536 0.5536 0.8328 -379.3058 394.0257)" fill="#9E9D9C" stroke="#FFFFFF" cx="462.6" cy="824.9" rx="7.7" ry="7.7"/>
				
					<ellipse transform="matrix(0.8328 -0.5536 0.5536 0.8328 -369.6179 391.0995)" fill="#9E9D9C" stroke="#FFFFFF" cx="462.6" cy="807.4" rx="7.7" ry="7.7"/>
				<rect x="468.6" y="798.5" fill="#9E9D9C" stroke="#FFFFFF" width="24.9" height="35.2"/>
			</g>-->
		</g>
		<g id="fwrD2-02">
			<rect id="rectangle_2_" x="488.3" y="478.7" fill="none" width="150.9" height="152.2"/>
			<!--<path fill="#989898" stroke="#FFFFFF" d="M577.1,501.8h-44v-22.1h44.1L577.1,501.8L577.1,501.8z"/>
			<path fill="#989898" stroke="#FFFFFF" d="M621.2,501.8h-44v-22.1h44.1L621.2,501.8L621.2,501.8z"/>
			<path fill="#989898" stroke="#FFFFFF" d="M591.7,607.5h10.8c0-6.3,5.1-11.3,11.2-11.3c6.1,0,11.2,5,11.2,11.3h10.8v22.1h-44.1
				L591.7,607.5L591.7,607.5z"/>
			<path fill="#989898" stroke="#FFFFFF" d="M545.3,607.8H556c0-6.3,5.1-11.3,11.2-11.3s11.2,5,11.2,11.3h10.8v22.1h-44.1
				L545.3,607.8L545.3,607.8z"/>
			<path fill="#989898" stroke="#FFFFFF" d="M498.2,607.8H509c0-6.3,5.1-11.3,11.2-11.3c6.1,0,11.2,5,11.2,11.3h10.8v22.1h-44.1
				L498.2,607.8L498.2,607.8z"/>-->
		</g>
		<g id="fwrD2-03">
			<polygon id="rectangle_1_" fill="none" points="639.1,326.7 639.1,476.9 488.3,476.9 488.3,424.9 433,424.9 432.5,326.7 			"/>
			<path id="fwwD2-03-01" fill="#6BB53C" stroke="#FFFFFF" d="M496,379.1v-10.8c-6.3,0-11.3-5.1-11.3-11.2s5-11.2,11.3-11.2v-10.8
				h22.1v44.1L496,379.1L496,379.1z"/>
			<path id="fwwD2-03-02" fill="#6BB53C" stroke="#FFFFFF" d="M591.1,380.8h10.8c0-6.3,5.1-11.3,11.2-11.3s11.2,5,11.2,11.3h10.8
				v22.1H591L591.1,380.8L591.1,380.8z"/>
			<path id="fwwD2-03-03" fill="#6BB53C" stroke="#FFFFFF" d="M635,424.8h-10.8c0,6.3-5.1,11.3-11.2,11.3s-11.2-5-11.2-11.3H591
				v-22.1h44.1L635,424.8L635,424.8z"/>
			<path id="fwwD2-03-04" fill="#6BB53C" stroke="#FFFFFF" d="M568.9,424.8V414c-6.3,0-11.3-5.1-11.3-11.2s5-11.2,11.3-11.2v-10.8
				H591v44.1L568.9,424.8L568.9,424.8z"/>
		</g>
		<g id="fwrD2-04">
			<polygon id="rectangle_4_" fill="none" points="639.1,110.6 639.1,325.6 389.2,325.6 389.2,123.9 519.2,123.9 519.5,110.6 			"/>
			<path id="fwwD2-04-06" fill="#6BB53C" stroke="#FFFFFF" d="M568.9,288.1v-10.8c-6.3,0-11.3-5.1-11.3-11.2s5-11.2,11.3-11.2v-10.8
				H591v44.1L568.9,288.1L568.9,288.1z"/>
			<path id="fwwD2-04-05" fill="#6BB53C" stroke="#FFFFFF" d="M634.9,288.1h-10.8c0,6.3-5.1,11.3-11.2,11.3s-11.2-5-11.2-11.3h-10.8
				V266H635L634.9,288.1L634.9,288.1z"/>
			<path id="fwwD2-04-04" fill="#6BB53C" stroke="#FFFFFF" d="M591.1,244.1h10.8c0-6.3,5.1-11.3,11.2-11.3c6.1,0,11.2,5,11.2,11.3
				h10.8v22.1H591L591.1,244.1L591.1,244.1z"/>
			<path id="fwwD2-04-03" fill="#6BB53C" stroke="#FFFFFF" d="M473.6,192.5h-10.8c0,6.3-5.1,11.3-11.2,11.3s-11.2-5-11.2-11.3h-10.8
				v-22.1h44.1v22.1H473.6z"/>
			<path id="fwwD2-04-02" fill="#6BB53C" stroke="#FFFFFF" d="M473.6,126.5v10.8c6.3,0,11.3,5.1,11.3,11.2s-5,11.2-11.3,11.2v10.8
				h-22.1v-44.1L473.6,126.5L473.6,126.5z"/>
			<path id="fwwD2-04-01" fill="#6BB53C" stroke="#FFFFFF" d="M429.6,170.3v-10.8c-6.3,0-11.3-5.1-11.3-11.2c0-6.1,5-11.2,11.3-11.2
				v-10.8h22.1v44.1L429.6,170.3L429.6,170.3z"/>
			<!--<g id="zitje_2_">
				
					<ellipse transform="matrix(0.8328 -0.5536 0.5536 0.8328 -8.5477 356.2836)" fill="#9E9D9C" stroke="#FFFFFF" cx="585.5" cy="192.3" rx="7.7" ry="7.7"/>
				
					<ellipse transform="matrix(0.8328 -0.5536 0.5536 0.8328 16.4921 360.381)" fill="#9E9D9C" stroke="#FFFFFF" cx="604.8" cy="152.9" rx="7.7" ry="7.7"/>
				
					<ellipse transform="matrix(0.8328 -0.5536 0.5536 0.8328 1.9259 370.7619)" fill="#9E9D9C" stroke="#FFFFFF" cx="614.7" cy="182.2" rx="7.7" ry="7.7"/>
				
					<ellipse transform="matrix(0.8328 -0.5536 0.5536 0.8328 6.2919 345.8232)" fill="#9E9D9C" stroke="#FFFFFF" cx="575.6" cy="162.5" rx="7.7" ry="7.7"/>
				
					<ellipse transform="matrix(0.8328 -0.5536 0.5536 0.8328 4.1671 358.1841)" fill="#9E9D9C" stroke="#FFFFFF" cx="595" cy="172.2" rx="13" ry="13"/>
			</g>-->
		</g>
		<g id="fwrD2-06">
			<polygon id="rectangle_5_" fill="none" points="325.6,122.4 325.6,325.2 8.3,325.2 8.3,169.1 20,169.4 20,119.1 107,19.1 
				182,19.4 182.5,9.1 282.7,9.1 283,63.1 292,63.1 292.2,115.6 306,115.6 306.2,122.4 			"/>
			<path id="fwwD2-06-13" fill="#6BB53C" stroke="#FFFFFF" d="M81.6,121.1l-8.3-6.9c-4,4.8-11.2,5.4-15.8,1.5
				c-4.7-3.9-5.4-11-1.3-15.9l-8.3-6.9l14.3-17L96,104.2L81.6,121.1L81.6,121.1z"/>
			<path id="fwwD2-06-12" fill="#6BB53C" stroke="#FFFFFF" d="M126.7,101.5l-6.9,8.3c4.8,4,5.4,11.2,1.5,15.8
				c-3.9,4.7-11,5.4-15.9,1.3l-6.9,8.3l-17-14.2l28.4-33.9l16.9,14.2L126.7,101.5z"/>
			<path id="fwwD2-06-11" fill="#6BB53C" stroke="#FFFFFF" d="M76.4,59.1l8.3,6.9c4-4.8,11.2-5.4,15.8-1.5c4.7,3.9,5.4,11,1.3,15.9
				l8.3,6.9l-14.2,16.9L62.1,75.9L76.4,59.1L76.4,59.1z"/>
			<path id="fwwD2-06-10" fill="#6BB53C" stroke="#FFFFFF" d="M57.3,236.3h10.8c0-6.3,5.1-11.3,11.2-11.3s11.2,5,11.2,11.3h10.8
				v22.1H57.2L57.3,236.3L57.3,236.3z"/>
			<path id="fwwD2-06-09" fill="#6BB53C" stroke="#FFFFFF" d="M13.2,236.3H24c0-6.3,5.1-11.3,11.2-11.3s11.2,5,11.2,11.3h10.8v22.1
				H13.1L13.2,236.3L13.2,236.3z"/>
			<path id="fwwD2-06-08" fill="#6BB53C" stroke="#FFFFFF" d="M57,280.5H46.3c0,6.3-5.1,11.3-11.2,11.3s-11.2-5-11.2-11.3H13v-22.1
				h44.1L57,280.5L57,280.5z"/>
			<path id="fwwD2-06-07" fill="#6BB53C" stroke="#FFFFFF" d="M101,280.5H90.2c0,6.3-5.1,11.3-11.2,11.3s-11.2-5-11.2-11.3H57v-22.1
				h44.1L101,280.5L101,280.5z"/>
			<path id="fwwD2-06-06" fill="#6BB53C" stroke="#FFFFFF" d="M244.9,103v10.8c6.3,0,11.3,5.1,11.3,11.2c0,6.1-5,11.2-11.3,11.2
				v10.7h-22.1v-44L244.9,103L244.9,103z"/>
			<path id="fwwD2-06-05" fill="#6BB53C" stroke="#FFFFFF" d="M244.9,58.9v10.8c6.3,0,11.3,5.1,11.3,11.2s-5,11.2-11.3,11.2v10.8
				h-22.1V58.8L244.9,58.9L244.9,58.9z"/>
			<path id="fwwD2-06-04" fill="#6BB53C" stroke="#FFFFFF" d="M244.9,14.9v10.8c6.3,0,11.3,5.1,11.3,11.2s-5,11.2-11.3,11.2v10.8
				h-22.1V14.8L244.9,14.9L244.9,14.9z"/>
			<path id="fwwD2-06-03" fill="#6BB53C" stroke="#FFFFFF" d="M200.8,58.7V47.9c-6.3,0-11.3-5.1-11.3-11.2s5-11.2,11.3-11.2V14.7h22
				v44.1L200.8,58.7L200.8,58.7z"/>
			<path id="fwwD2-06-02" fill="#6BB53C" stroke="#FFFFFF" d="M200.8,102.8V92c-6.3,0-11.3-5.1-11.3-11.2s5-11.2,11.3-11.2V58.8h22
				v44.1L200.8,102.8L200.8,102.8z"/>
			<path id="fwwD2-06-01" fill="#6BB53C" stroke="#FFFFFF" d="M200.8,146.8V136c-6.3,0-11.3-5.1-11.3-11.2s5-11.2,11.3-11.2v-10.7
				h22v44L200.8,146.8L200.8,146.8z"/>
			<!--<g id="zitje_4_">
				
					<ellipse transform="matrix(0.8328 -0.5536 0.5536 0.8328 -105.0067 175.556)" fill="#9E9D9C" stroke="#FFFFFF" cx="238.1" cy="261.6" rx="7.7" ry="7.7"/>
				
					<ellipse transform="matrix(0.8328 -0.5536 0.5536 0.8328 -94.6881 172.3229)" fill="#9E9D9C" stroke="#FFFFFF" cx="237.9" cy="242.9" rx="7.7" ry="7.7"/>
				
					<ellipse transform="matrix(0.8328 -0.5536 0.5536 0.8328 -111.0995 155.1721)" fill="#9E9D9C" stroke="#FFFFFF" cx="201.3" cy="261.5" rx="7.7" ry="7.7"/>
				
					<ellipse transform="matrix(0.8328 -0.5536 0.5536 0.8328 -115.5252 178.7332)" fill="#9E9D9C" stroke="#FFFFFF" cx="238.1" cy="280.6" rx="7.7" ry="7.7"/>
				
					<ellipse transform="matrix(0.8328 -0.5536 0.5536 0.8328 -121.6179 158.3492)" fill="#9E9D9C" stroke="#FFFFFF" cx="201.3" cy="280.5" rx="7.7" ry="7.7"/>
				
					<ellipse transform="matrix(0.8328 -0.5536 0.5536 0.8328 -127.6405 171.2168)" fill="#9E9D9C" stroke="#FFFFFF" cx="219.6" cy="296.9" rx="7.7" ry="7.7"/>
				
					<ellipse transform="matrix(0.8328 -0.5536 0.5536 0.8328 -88.7241 159.4619)" fill="#9E9D9C" stroke="#FFFFFF" cx="219.6" cy="226.6" rx="7.7" ry="7.7"/>
				
					<ellipse transform="matrix(0.8328 -0.5536 0.5536 0.8328 -100.896 151.9625)" fill="#9E9D9C" stroke="#FFFFFF" cx="201.1" cy="243" rx="7.7" ry="7.7"/>
				<rect x="207.5" y="232.8" fill="#9E9D9C" stroke="#FFFFFF" width="24.9" height="57.4"/>
			</g>-->
		</g>
		<g id="fwrD2-07">
			<rect id="rectangle_6_" x="6.9" y="324.6" fill="none" width="154.4" height="153.4"/>
			<path id="fwwD2-07-02" fill="#6BB53C" stroke="#FFFFFF" d="M57,425.6H46.2c0,6.3-5.1,11.3-11.2,11.3s-11.2-5-11.2-11.3H13v-22.1
				h44.1L57,425.6L57,425.6z"/>
			<path id="fwwD2-07-01" fill="#6BB53C" stroke="#FFFFFF" d="M101.2,425.6H90.4c0,6.3-5.1,11.3-11.2,11.3s-11.2-5-11.2-11.3H57.2
				v-22.1h44.1L101.2,425.6L101.2,425.6z"/>
			<path id="fwwD2-07-04" fill="#6BB53C" stroke="#FFFFFF" d="M57.3,381.5h10.8c0-6.3,5.1-11.3,11.2-11.3s11.2,5,11.2,11.3h10.8
				v22.1H57.2L57.3,381.5L57.3,381.5z"/>
			<path id="fwwD2-07-03" fill="#196BA4" stroke="#FFFFFF" d="M13.2,381.5H24c0-6.3,5.1-11.3,11.2-11.3s11.2,5,11.2,11.3h10.8v22.1
				H13.1L13.2,381.5L13.2,381.5z"/>
		</g>
		<g id="fwvD2-08">
			<rect id="rectangle_3_" x="8.5" y="478.9" fill="none" width="203.4" height="151"/>
			<!--<g id="zitje_1_">
				
					<ellipse transform="matrix(0.8328 -0.5536 0.5536 0.8328 -312.9534 140.1446)" fill="#9E9D9C" stroke="#FFFFFF" cx="75.5" cy="588.1" rx="7.7" ry="7.7"/>
				
					<ellipse transform="matrix(0.8328 -0.5536 0.5536 0.8328 -287.6089 119.0049)" fill="#9E9D9C" stroke="#FFFFFF" cx="53.2" cy="535.6" rx="7.7" ry="7.7"/>
				
					<ellipse transform="matrix(0.8328 -0.5536 0.5536 0.8328 -278.8192 129.9538)" fill="#9E9D9C" stroke="#FFFFFF" cx="75.7" cy="526.5" rx="7.7" ry="7.7"/>
				
					<ellipse transform="matrix(0.8328 -0.5536 0.5536 0.8328 -279.8462 143.5544)" fill="#9E9D9C" stroke="#FFFFFF" cx="97.7" cy="535" rx="7.7" ry="7.7"/>
				
					<ellipse transform="matrix(0.8328 -0.5536 0.5536 0.8328 -290.419 152.2965)" fill="#9E9D9C" stroke="#FFFFFF" cx="106.9" cy="556.9" rx="7.7" ry="7.7"/>
				
					<ellipse transform="matrix(0.8328 -0.5536 0.5536 0.8328 -304.2495 150.914)" fill="#9E9D9C" stroke="#FFFFFF" cx="97.7" cy="579.1" rx="7.7" ry="7.7"/>
				
					<ellipse transform="matrix(0.8328 -0.5536 0.5536 0.8328 -311.6565 126.3913)" fill="#9E9D9C" stroke="#FFFFFF" cx="53.4" cy="579.1" rx="7.7" ry="7.7"/>
				
					<ellipse transform="matrix(0.8328 -0.5536 0.5536 0.8328 -301.1243 117.6537)" fill="#9E9D9C" stroke="#FFFFFF" cx="44.2" cy="557.3" rx="7.7" ry="7.7"/>
				
					<ellipse transform="matrix(0.8328 -0.5536 0.5536 0.8328 -296.1202 134.8777)" fill="#9E9D9C" stroke="#FFFFFF" cx="75.2" cy="557.6" rx="21" ry="21"/>
			</g>-->
		</g>
		<g id="fwrD2-09">
			<rect id="rectangle_7_" x="6.9" y="632.8" fill="none" width="154.4" height="200.2"/>
			<path id="fwwD2-09-02" fill="#6BB53C" stroke="#FFFFFF" d="M56.5,801.4H45.7c0,6.3-5.1,11.3-11.2,11.3s-11.2-5-11.2-11.3H12.5
				v-22.1h44.1L56.5,801.4L56.5,801.4z"/>
			<path id="fwwD2-09-01" fill="#6BB53C" stroke="#FFFFFF" d="M100.7,801.4H89.9c0,6.3-5.1,11.3-11.2,11.3s-11.2-5-11.2-11.3H56.7
				v-22.1h44.1L100.7,801.4L100.7,801.4z"/>
			<path id="fwwD2-09-04" fill="#6BB53C" stroke="#FFFFFF" d="M56.8,757.3h10.8c0-6.3,5.1-11.3,11.2-11.3S90,751,90,757.3h10.8v22
				H56.7L56.8,757.3L56.8,757.3z"/>
			<path id="fwwD2-09-03" fill="#6BB53C" stroke="#FFFFFF" d="M12.7,757.3h10.8c0-6.3,5.1-11.3,11.2-11.3s11.2,5,11.2,11.3h10.8v22
				H12.6L12.7,757.3L12.7,757.3z"/>
			<!--<g id="zitje_5_">
				
					<ellipse transform="matrix(0.8328 -0.5536 0.5536 0.8328 -361.1348 178.7965)" fill="#9E9D9C" stroke="#FFFFFF" cx="115.4" cy="687.2" rx="7.7" ry="7.7"/>
				
					<ellipse transform="matrix(0.8328 -0.5536 0.5536 0.8328 -336.095 182.8939)" fill="#9E9D9C" stroke="#FFFFFF" cx="134.7" cy="647.8" rx="7.7" ry="7.7"/>
				
					<ellipse transform="matrix(0.8328 -0.5536 0.5536 0.8328 -350.6382 193.2063)" fill="#9E9D9C" stroke="#FFFFFF" cx="144.5" cy="677" rx="7.7" ry="7.7"/>
				
					<ellipse transform="matrix(0.8328 -0.5536 0.5536 0.8328 -346.2275 168.3045)" fill="#9E9D9C" stroke="#FFFFFF" cx="105.5" cy="657.3" rx="7.7" ry="7.7"/>
				
					<ellipse transform="matrix(0.8328 -0.5536 0.5536 0.8328 -348.3969 180.6285)" fill="#9E9D9C" stroke="#FFFFFF" cx="124.8" cy="667" rx="13" ry="13"/>
			</g>-->
		</g>
		<g id="fwrD2-10">
			<polygon id="rectangle_8_" fill="none" points="217.3,835.3 217.3,980.5 62.2,980.5 62,999.3 7.5,999.3 7.5,835.3 			"/>
			<path id="fwwD2-10-02" fill="#6BB53C" stroke="#FFFFFF" d="M57.3,933.9H46.5c0,6.3-5.1,11.3-11.2,11.3s-11.2-5-11.2-11.3H13.3
				v-22h44.1L57.3,933.9L57.3,933.9C57.3,934,57.3,933.9,57.3,933.9z"/>
			<path id="fwwD2-10-01" fill="#6BB53C" stroke="#FFFFFF" d="M101.4,934H90.6c0,6.3-5.1,11.3-11.2,11.3s-11.2-5-11.2-11.3H57.4
				v-22.1h44.1L101.4,934L101.4,934z"/>
			<path id="fwwD2-10-04" fill="#6BB53C" stroke="#FFFFFF" d="M57.6,889.9h10.8c0-6.3,5.1-11.3,11.2-11.3s11.2,5,11.2,11.3h10.8V912
				H57.5L57.6,889.9L57.6,889.9z"/>
			<path id="fwwD2-10-03" fill="#6BB53C" stroke="#FFFFFF" d="M13.5,889.8h10.8c0-6.3,5.1-11.3,11.2-11.3s11.2,5,11.2,11.3h10.8
				v22.1H13.4L13.5,889.8L13.5,889.8z"/>
		</g>
		<g id="fwrD2-11">
			<rect x="210.9" y="325" fill="none" width="173" height="80.8"/>
			<path id="fwwD2-11-06" fill="#F9B03D" stroke="#FFFFFF" d="M239.3,385.1h2.3c0-5.3,4.2-9.4,9.4-9.4c5.1,0,9.4,4.2,9.4,9.4h2.3
				v18.4H239v-18.4H239.3z"/>
			<path id="fwwD2-11-05" fill="#F9B03D" stroke="#FFFFFF" d="M263,385.1h2.3c0-5.3,4.2-9.4,9.4-9.4s9.4,4.2,9.4,9.4h2.3v18.4h-23.8
				v-18.4H263z"/>
			<path id="fwwD2-11-04" fill="#F9B03D" stroke="#FFFFFF" d="M286.7,385.1h2.3c0-5.3,4.2-9.4,9.4-9.4c5.1,0,9.4,4.2,9.4,9.4h2.3
				v18.4h-23.7v-18.4H286.7z"/>
			<path id="fwwD2-11-03" fill="#F9B03D" stroke="#FFFFFF" d="M310.4,385.1h2.3c0-5.3,4.2-9.4,9.4-9.4c5.1,0,9.4,4.2,9.4,9.4h2.3
				v18.4h-23.7v-18.4H310.4z"/>
			<path id="fwwD2-11-02" fill="#F9B03D" stroke="#FFFFFF" d="M334.1,385.1h2.3c0-5.3,4.2-9.4,9.4-9.4s9.4,4.2,9.4,9.4h2.3v18.4
				h-23.7v-18.4H334.1z"/>
			<path id="fwwD2-11-01" fill="#F9B03D" stroke="#FFFFFF" d="M357.8,385.1h2.3c0-5.3,4.2-9.4,9.4-9.4s9.4,4.2,9.4,9.4h2.3v18.4
				h-23.7v-18.4H357.8z"/>
		</g>
	</g>
</g>
<g id="Static">
	<g id="Deuren">
		<polyline fill="none" stroke="#020203" stroke-width="0.25" stroke-miterlimit="10" points="217.3,760.8 212.3,782 217.3,782 		
			"/>
		<polyline fill="none" stroke="#020203" stroke-width="0.25" stroke-miterlimit="10" points="211.4,630.3 190.2,625.4 190.2,630.3 
					"/>
		<polyline fill="none" stroke="#020203" stroke-width="0.25" stroke-miterlimit="10" points="211.1,477.6 189.9,472.6 189.9,477.6 
					"/>
		<polyline fill="none" stroke="#020203" stroke-width="0.25" stroke-miterlimit="10" points="161.5,473 156.5,451.8 161.5,451.8 		
			"/>
		<polyline fill="none" stroke="#020203" stroke-width="0.25" stroke-miterlimit="10" points="161.9,829.6 157,808.4 161.9,808.4 		
			"/>
		<polyline fill="none" stroke="#020203" stroke-width="0.25" stroke-miterlimit="10" points="191.7,834.8 212.9,839.8 212.9,834.8 
					"/>
		<polyline fill="none" stroke="#020203" stroke-width="0.25" stroke-miterlimit="10" points="222.8,665.3 244.1,670.3 244.1,665.3 
					"/>
		<polyline fill="none" stroke="#020203" stroke-width="0.25" stroke-miterlimit="10" points="350.3,665.3 371.6,670.3 371.6,665.3 
					"/>
		<polyline fill="none" stroke="#020203" stroke-width="0.25" stroke-miterlimit="10" points="386.1,667.5 407.2,672.8 407.3,667.9 
					"/>
		<polyline fill="none" stroke="#020203" stroke-width="0.25" stroke-miterlimit="10" points="430.2,667.9 409,672.9 409,667.9 		
			"/>
		<polyline fill="none" stroke="#020203" stroke-width="0.25" stroke-miterlimit="10" points="432.6,751.6 437.6,772.8 432.6,772.8 
					"/>
		<polyline fill="none" stroke="#020203" stroke-width="0.25" stroke-miterlimit="10" points="384,503.6 378.6,524.7 383.6,524.8 		
			"/>
		<polyline fill="none" stroke="#020203" stroke-width="0.25" stroke-miterlimit="10" points="383.6,547.8 378.6,526.6 383.6,526.6 
					"/>
		<polyline fill="none" stroke="#020203" stroke-width="0.25" stroke-miterlimit="10" points="211.1,530.6 216.5,509.5 211.5,509.4 
					"/>
		<polyline fill="none" stroke="#020203" stroke-width="0.25" stroke-miterlimit="10" points="211.5,486.5 216.5,507.7 211.5,507.7 
					"/>
		<polyline fill="none" stroke="#020203" stroke-width="0.25" stroke-miterlimit="10" points="384,416.1 378.6,437.2 383.6,437.3 		
			"/>
		<polyline fill="none" stroke="#020203" stroke-width="0.25" stroke-miterlimit="10" points="211.4,381.2 216.8,360.1 211.8,360 		
			"/>
		<polyline fill="none" stroke="#020203" stroke-width="0.25" stroke-miterlimit="10" points="459.1,424.4 438,419 437.9,424 		"/>
		<polyline fill="none" stroke="#020203" stroke-width="0.25" stroke-miterlimit="10" points="489.1,528.2 494.5,507.1 489.5,507 		
			"/>
		<polyline fill="none" stroke="#020203" stroke-width="0.25" stroke-miterlimit="10" points="432.4,469.5 437.8,448.4 432.8,448.3 
					"/>
		<polyline fill="none" stroke="#020203" stroke-width="0.25" stroke-miterlimit="10" points="431.4,324.4 410.3,319 410.2,324 		
			"/>
		<polyline fill="none" stroke="#020203" stroke-width="0.25" stroke-miterlimit="10" points="321.1,325.4 300,320 299.9,325 		"/>
		<polyline fill="none" stroke="#020203" stroke-width="0.25" stroke-miterlimit="10" points="383.6,460.3 378.6,439.1 383.6,439.1 
					"/>
		<polyline fill="none" stroke="#020203" stroke-width="0.25" stroke-miterlimit="10" points="381.9,324.9 360.8,319.5 360.7,324.5 
					"/>
		<polyline fill="none" stroke="#020203" stroke-width="0.25" stroke-miterlimit="10" points="337.7,324.5 358.9,319.5 358.9,324.5 
					"/>
	</g>
	<g id="Trappen">
		<g>
			<polyline fill="none" stroke="#020203" stroke-miterlimit="10" points="330.8,900.3 369.4,938.8 401.4,906.8 362.9,868.2 			"/>
			<line fill="none" stroke="#020203" stroke-miterlimit="10" x1="397.2" y1="911" x2="358.9" y2="872.2"/>
			<line fill="none" stroke="#020203" stroke-miterlimit="10" x1="393.2" y1="914.5" x2="354.8" y2="875.6"/>
			<line fill="none" stroke="#020203" stroke-miterlimit="10" x1="389.1" y1="918.4" x2="350.6" y2="879.9"/>
			<line fill="none" stroke="#020203" stroke-miterlimit="10" x1="385.1" y1="922.5" x2="346.5" y2="883.8"/>
			<line fill="none" stroke="#020203" stroke-miterlimit="10" x1="381.4" y1="926.8" x2="342.5" y2="887.9"/>
			<line fill="none" stroke="#020203" stroke-miterlimit="10" x1="377.4" y1="930.8" x2="338.8" y2="892.1"/>
			<line fill="none" stroke="#020203" stroke-miterlimit="10" x1="373.2" y1="934.5" x2="334.5" y2="895.9"/>
			<line fill="none" stroke="#020203" stroke-miterlimit="10" x1="358.3" y1="911.6" x2="382.2" y2="887.5"/>
			<polygon fill="#020203" points="375.8,900.4 369.3,893.9 381.7,887.1 			"/>
		</g>
		<g>
			<rect x="231.4" y="820.7" fill="none" stroke="#020203" stroke-miterlimit="10" width="4.5" height="92.5"/>
			<rect x="265.9" y="820.7" fill="none" stroke="#020203" stroke-miterlimit="10" width="4.5" height="92.5"/>
			<line fill="none" stroke="#020203" stroke-miterlimit="10" x1="235.9" y1="913.2" x2="266.3" y2="913.2"/>
			<line fill="none" stroke="#020203" stroke-miterlimit="10" x1="235.9" y1="910.4" x2="266.3" y2="910.4"/>
			<line fill="none" stroke="#020203" stroke-miterlimit="10" x1="235.9" y1="907.6" x2="266.3" y2="907.6"/>
			<line fill="none" stroke="#020203" stroke-miterlimit="10" x1="235.9" y1="904.8" x2="266.3" y2="904.8"/>
			<line fill="none" stroke="#020203" stroke-miterlimit="10" x1="235.9" y1="902.1" x2="266.3" y2="902.1"/>
			<line fill="none" stroke="#020203" stroke-miterlimit="10" x1="235.9" y1="899.3" x2="266.3" y2="899.3"/>
			<line fill="none" stroke="#020203" stroke-miterlimit="10" x1="235.9" y1="896.5" x2="266.3" y2="896.5"/>
			<line fill="none" stroke="#020203" stroke-miterlimit="10" x1="235.9" y1="893.7" x2="266.3" y2="893.7"/>
			<line fill="none" stroke="#020203" stroke-miterlimit="10" x1="235.9" y1="890.9" x2="266.3" y2="890.9"/>
			<line fill="none" stroke="#020203" stroke-miterlimit="10" x1="235.9" y1="888.2" x2="266.3" y2="888.2"/>
			<line fill="none" stroke="#020203" stroke-miterlimit="10" x1="235.9" y1="885.4" x2="266.3" y2="885.4"/>
			<line fill="none" stroke="#020203" stroke-miterlimit="10" x1="235.9" y1="882.6" x2="266.3" y2="882.6"/>
			<line fill="none" stroke="#020203" stroke-miterlimit="10" x1="235.9" y1="879.8" x2="266.3" y2="879.8"/>
			<line fill="none" stroke="#020203" stroke-miterlimit="10" x1="235.9" y1="877" x2="266.3" y2="877"/>
			<line fill="none" stroke="#020203" stroke-miterlimit="10" x1="235.9" y1="874.3" x2="266.3" y2="874.3"/>
			<line fill="none" stroke="#020203" stroke-miterlimit="10" x1="235.9" y1="871.5" x2="266.3" y2="871.5"/>
			<line fill="none" stroke="#020203" stroke-miterlimit="10" x1="235.9" y1="868.7" x2="266.3" y2="868.7"/>
			<line fill="none" stroke="#020203" stroke-miterlimit="10" x1="235.9" y1="865.9" x2="266.3" y2="865.9"/>
			<line fill="none" stroke="#020203" stroke-miterlimit="10" x1="235.9" y1="863.1" x2="266.3" y2="863.1"/>
			<line fill="none" stroke="#020203" stroke-miterlimit="10" x1="235.9" y1="860.4" x2="266.3" y2="860.4"/>
			<line fill="none" stroke="#020203" stroke-miterlimit="10" x1="235.9" y1="857.6" x2="266.3" y2="857.6"/>
			<line fill="none" stroke="#020203" stroke-miterlimit="10" x1="235.9" y1="854.8" x2="266.3" y2="854.8"/>
			<line fill="none" stroke="#020203" stroke-miterlimit="10" x1="235.9" y1="852" x2="266.3" y2="852"/>
			<line fill="none" stroke="#020203" stroke-miterlimit="10" x1="235.9" y1="849.3" x2="266.3" y2="849.3"/>
			<line fill="none" stroke="#020203" stroke-miterlimit="10" x1="235.9" y1="846.5" x2="266.3" y2="846.5"/>
			<line fill="none" stroke="#020203" stroke-miterlimit="10" x1="235.9" y1="843.7" x2="266.3" y2="843.7"/>
			<line fill="none" stroke="#020203" stroke-miterlimit="10" x1="235.9" y1="840.9" x2="266.3" y2="840.9"/>
			<line fill="none" stroke="#020203" stroke-miterlimit="10" x1="235.9" y1="838.1" x2="266.3" y2="838.1"/>
			<line fill="none" stroke="#020203" stroke-miterlimit="10" x1="235.9" y1="835.4" x2="266.3" y2="835.4"/>
			<line fill="none" stroke="#020203" stroke-miterlimit="10" x1="235.9" y1="832.6" x2="266.3" y2="832.6"/>
			<line fill="none" stroke="#020203" stroke-miterlimit="10" x1="235.9" y1="829.8" x2="266.3" y2="829.8"/>
			<line fill="none" stroke="#020203" stroke-miterlimit="10" x1="235.9" y1="827" x2="266.3" y2="827"/>
			<line fill="none" stroke="#020203" stroke-miterlimit="10" x1="235.9" y1="824.2" x2="266.3" y2="824.2"/>
			<line fill="none" stroke="#020203" stroke-miterlimit="10" x1="235.9" y1="821.5" x2="266.3" y2="821.5"/>
			<line fill="none" stroke="#020203" stroke-miterlimit="10" x1="248.9" y1="875.3" x2="249.1" y2="909.3"/>
			<polygon fill="#020203" points="244.5,895.7 253.7,895.7 249.7,909.2 			"/>
		</g>
		<path fill="none" stroke="#020203" stroke-miterlimit="10" d="M319.5,69.9"/>
		<g>
			<circle fill="none" stroke="#020203" stroke-miterlimit="10" cx="338.8" cy="68.5" r="3.5"/>
			<path fill="none" stroke="#020203" stroke-miterlimit="10" d="M336.4,87.7c0.8,0.1,1.6,0.2,2.4,0.2c10.7,0,19.3-8.7,19.3-19.3
				s-8.7-19.3-19.3-19.3s-19.3,8.7-19.3,19.3c0,0.5,0,0.9,0.1,1.3"/>
			<path fill="none" stroke="#020203" stroke-miterlimit="10" d="M336.4,87.7"/>
			<polyline fill="none" stroke="#020203" stroke-miterlimit="10" points="336.8,87.5 332.3,92.4 332.3,106.8 			"/>
			<line fill="none" stroke="#020203" stroke-miterlimit="10" x1="337.8" y1="87.8" x2="337.8" y2="72"/>
			<line fill="none" stroke="#020203" stroke-miterlimit="10" x1="338.3" y1="64.8" x2="347.5" y2="51.2"/>
			<line fill="none" stroke="#020203" stroke-miterlimit="10" x1="339.8" y1="65" x2="354.8" y2="57.6"/>
			<line fill="none" stroke="#020203" stroke-miterlimit="10" x1="341.8" y1="66.3" x2="357.9" y2="65.1"/>
			<line fill="none" stroke="#020203" stroke-miterlimit="10" x1="342.6" y1="68.7" x2="358" y2="71.1"/>
			<line fill="none" stroke="#020203" stroke-miterlimit="10" x1="340.4" y1="71.6" x2="356.5" y2="76.4"/>
			<line fill="none" stroke="#020203" stroke-miterlimit="10" x1="337.8" y1="72" x2="353.3" y2="81"/>
			<line fill="none" stroke="#020203" stroke-miterlimit="10" x1="347.6" y1="85.8" x2="337.8" y2="72"/>
			<line fill="none" stroke="#020203" stroke-miterlimit="10" x1="342.1" y1="87.6" x2="338.1" y2="72.4"/>
		</g>
	</g>
	<g id="Liften">
		<g id="Liften_2_">
			<g id="lift_2_">
				<path fill="#E3811F" d="M276.1,716.4l4,3.1V707h1.8v12.5l4-3.1v1.8l-4.9,4l-4.9-4V716.4z M268.5,712.4l4-3.1v12.5h1.8v-12.5
					l4,3.1v-1.8l-4.9-4l-4.9,4V712.4z"/>
			</g>
		</g>
		<g id="Liften_1_">
			<g id="lift_1_">
				<path fill="#E3811F" d="M318.1,716.4l4,3.1V707h1.8v12.5l4-3.1v1.8l-4.9,4l-4.9-4V716.4z M310.5,712.4l4-3.1v12.5h1.8v-12.5
					l4,3.1v-1.8l-4.9-4l-4.9,4V712.4z"/>
			</g>
		</g>
	</g>
	<g id="Toilet_1_">
		<rect x="219.6" y="562.8" fill="#FFFFFF" width="156.3" height="102.2"/>
		<path fill="#F08018" d="M329.1,610.5c-0.8,0-1.5,0.7-1.5,1.5s0.7,1.5,1.5,1.5s1.5-0.7,1.5-1.5S329.9,610.5,329.1,610.5
			 M327.2,614.3c-0.8,0-1.6,0.6-1.8,1.4l-1.3,4.9c0,0.3,0.2,0.6,0.6,0.6c0.3,0,0.6-0.2,0.6-0.6l1.3-4.6l0.7,0.2l-1.9,7.1h1.9v4.5
			c0,0.4,0.3,0.7,0.7,0.7c0.4,0,0.7-0.3,0.7-0.7v-4.5h0.7v4.5c0,0.4,0.3,0.7,0.7,0.7c0.4,0,0.7-0.3,0.7-0.7v-4.5h1.9l-1.9-7.1
			l0.7-0.2l1.4,4.6c0,0.3,0.2,0.6,0.6,0.6c0.3,0,0.6-0.2,0.6-0.6l-1.3-4.9c-0.2-0.8-1-1.4-1.8-1.4H327.2z"/>
		<path fill="#F08018" d="M253.9,610.7c-0.8,0-1.5,0.7-1.5,1.5s0.7,1.5,1.5,1.5s1.5-0.7,1.5-1.5
			C255.4,611.3,254.7,610.7,253.9,610.7 M251.6,614.4c-1,0-1.9,0.8-1.9,1.9v4.8c0,0.3,0.2,0.6,0.6,0.6c0.3,0,0.6-0.2,0.6-0.6v-4.8
			h0.7v11.3c0,0.5,0.4,0.9,0.9,0.9s0.9-0.4,0.9-0.9v-7.2h0.7v7.2c0,0.5,0.4,0.9,0.9,0.9s0.9-0.4,0.9-0.9v-11.3h0.7v4.8
			c0,0.3,0.2,0.6,0.6,0.6c0.3,0,0.6-0.2,0.6-0.6v-4.8c0-1-0.8-1.9-1.9-1.9H251.6z"/>
	</g>
	<g id="Kasten_3_">
		<rect x="567.9" y="633.8" fill="none" stroke="#878787" stroke-width="0.25" stroke-miterlimit="10" width="34" height="12.3"/>
		<rect x="456.9" y="310.8" fill="none" stroke="#878787" stroke-width="0.25" stroke-miterlimit="10" width="34" height="12.3"/>
		<rect x="491.2" y="310.8" fill="none" stroke="#878787" stroke-width="0.25" stroke-miterlimit="10" width="34" height="12.3"/>
		<rect x="525.2" y="310.8" fill="none" stroke="#878787" stroke-width="0.25" stroke-miterlimit="10" width="34" height="12.3"/>
		<rect x="456.9" y="328.6" fill="none" stroke="#878787" stroke-width="0.25" stroke-miterlimit="10" width="34" height="12.3"/>
		<rect x="313.4" y="169.9" fill="none" stroke="#878787" stroke-width="0.25" stroke-miterlimit="10" width="12.3" height="34"/>
		<rect x="313.4" y="237.9" fill="none" stroke="#878787" stroke-width="0.25" stroke-miterlimit="10" width="12.3" height="34"/>
		<rect x="313.3" y="203.9" fill="none" stroke="#878787" stroke-width="0.25" stroke-miterlimit="10" width="12.3" height="34"/>
		<rect x="147.8" y="735.9" fill="none" stroke="#878787" stroke-width="0.25" stroke-miterlimit="10" width="12.3" height="34"/>
		<rect x="82.7" y="836" fill="none" stroke="#878787" stroke-width="0.25" stroke-miterlimit="10" width="34" height="12.3"/>
		<rect x="125" y="327" fill="none" stroke="#878787" stroke-width="0.25" stroke-miterlimit="10" width="34" height="12.3"/>
	</g>
	<polyline id="Buitenmuur_1_" fill="none" stroke="#020203" stroke-width="3" stroke-miterlimit="10" points="364.4,950.5 
		428.5,885.1 428.5,855.6 530,855.6 530,846.5 640.2,846.5 640.2,110.7 532.9,110.7 532.9,107.6 324.5,107.6 324.5,116 291.9,116 
		291.9,62.9 282.6,62.9 282.6,9.1 167.3,9.1 167.3,2.8 96.6,2.8 1.8,107.1 1.8,169.7 7.4,169.7 7.4,999.6 62.4,999.6 62.4,1005.6 
		243.7,1005.6 243.7,949.5 364.2,949.5 	"/>
	<g id="Binnenmuur">
		<polyline fill="none" stroke="#020203" stroke-miterlimit="10" points="62.3,997.8 62.3,980.9 217,980.9 217,821.1 228,821.1 
			228,945.8 244.9,945.8 244.9,1004.7 		"/>
		<polygon fill="none" stroke="#020203" stroke-miterlimit="10" points="333.7,822.5 371,859.4 325.2,905.1 270.3,905.1 
			270.3,822.5 		"/>
		<polygon fill="none" stroke="#020203" stroke-miterlimit="10" points="246.9,665 246.9,741.5 251.8,741.5 251.8,740.5 
			259.9,740.5 259.9,736.4 263.6,736.4 263.6,729.7 259.9,729.7 259.9,695.4 293.3,695.4 293.3,729.8 289.6,729.8 289.6,740.5 
			306,740.5 306,729.8 302.3,729.8 302.3,695.4 336.5,695.4 336.5,729.8 332.6,729.8 332.6,736.8 336.5,736.8 336.5,740.3 
			344.4,740.3 344.4,741.5 348.9,741.5 348.9,672 348.9,666.9 348.9,665.1 251.8,665.1 251.8,665 		"/>
		<polygon fill="none" stroke="#020203" stroke-miterlimit="10" points="211.1,558.6 211.1,563 211.1,715.6 219.6,715.6 219.6,563 
			375.9,563 375.9,715.2 383.9,715.2 383.9,555 380.7,555 375.9,555 211.1,555 		"/>
		<line fill="none" stroke="#020203" stroke-miterlimit="10" x1="289.8" y1="665.1" x2="289.8" y2="483.5"/>
		<rect x="211" y="472" fill="none" stroke="#020203" stroke-miterlimit="10" width="14.7" height="11.3"/>
		<rect x="211" y="319.9" fill="none" stroke="#020203" stroke-miterlimit="10" width="14.7" height="11.3"/>
		<rect x="375.9" y="472.9" fill="none" stroke="#020203" stroke-miterlimit="10" width="8.1" height="10.7"/>
		<line fill="none" stroke="#020203" stroke-miterlimit="10" x1="225.7" y1="483.3" x2="375.9" y2="483.3"/>
		<line fill="none" stroke="#020203" stroke-miterlimit="10" x1="352.4" y1="555" x2="352.4" y2="483.3"/>
		<line fill="none" stroke="#020203" stroke-miterlimit="10" x1="383.9" y1="555" x2="383.9" y2="324.7"/>
		<line fill="none" stroke="#020203" stroke-miterlimit="10" x1="211.1" y1="555" x2="211.1" y2="319.5"/>
		<line fill="none" stroke="#020203" stroke-miterlimit="10" x1="432.1" y1="855.6" x2="432.1" y2="325.2"/>
		<line fill="none" stroke="#020203" stroke-miterlimit="10" x1="348.9" y1="665.1" x2="375.9" y2="665.1"/>
		<line fill="none" stroke="#020203" stroke-miterlimit="10" x1="246.9" y1="665" x2="219.6" y2="665"/>
		<polyline fill="none" stroke="#020203" stroke-miterlimit="10" points="529.4,846.5 529.4,835.5 432.1,835.5 		"/>
		<polyline fill="none" stroke="#020203" stroke-miterlimit="10" points="9.3,169.6 19.4,169.6 19.4,118.5 106.5,19.2 182,19.2 
			182,9.1 		"/>
		<line fill="none" stroke="#020203" stroke-miterlimit="10" x1="519.2" y1="107.9" x2="519.2" y2="123.9"/>
		<line fill="none" stroke="#020203" stroke-miterlimit="10" x1="338" y1="123.4" x2="519.2" y2="123.4"/>
		<line fill="none" stroke="#020203" stroke-miterlimit="10" x1="487.6" y1="478.5" x2="639.8" y2="478.5"/>
		<line fill="none" stroke="#020203" stroke-miterlimit="10" x1="431.9" y1="631.5" x2="639.8" y2="631.5"/>
		<line fill="none" stroke="#020203" stroke-miterlimit="10" x1="432.8" y1="326.5" x2="640.5" y2="326.5"/>
		<line fill="none" stroke="#020203" stroke-miterlimit="10" x1="305.7" y1="122" x2="338.3" y2="122"/>
		<line fill="none" stroke="#020203" stroke-miterlimit="10" x1="338.4" y1="123.8" x2="338.4" y2="121.5"/>
		<line fill="none" stroke="#020203" stroke-miterlimit="10" x1="306.1" y1="122.2" x2="306.1" y2="116"/>
		<line fill="none" stroke="#020203" stroke-miterlimit="10" x1="384" y1="405.4" x2="211.2" y2="405.4"/>
		<line fill="none" stroke="#020203" stroke-miterlimit="10" x1="7.1" y1="478.3" x2="210.5" y2="478.2"/>
		<line fill="none" stroke="#020203" stroke-miterlimit="10" x1="7.1" y1="324.9" x2="210.5" y2="324.9"/>
		<line fill="none" stroke="#020203" stroke-miterlimit="10" x1="227.5" y1="324.9" x2="432.7" y2="324.9"/>
		<line fill="none" stroke="#020203" stroke-miterlimit="10" x1="7.5" y1="834.3" x2="217.3" y2="834.3"/>
		<line fill="none" stroke="#020203" stroke-miterlimit="10" x1="7.5" y1="630.9" x2="210.3" y2="630.9"/>
		<line fill="none" stroke="#020203" stroke-miterlimit="10" x1="217.2" y1="821.6" x2="217.2" y2="716.4"/>
		<line fill="none" stroke="#020203" stroke-miterlimit="10" x1="384" y1="667.5" x2="432.5" y2="667.5"/>
		<rect x="384.8" y="123.6" fill="none" stroke="#020203" stroke-miterlimit="10" width="4.7" height="201.4"/>
		<rect x="326" y="122" fill="none" stroke="#020203" stroke-miterlimit="10" width="4.7" height="203"/>
		<line fill="none" stroke="#020203" stroke-miterlimit="10" x1="488.5" y1="632.9" x2="488.5" y2="423.5"/>
		<line fill="none" stroke="#020203" stroke-miterlimit="10" x1="431.8" y1="424.9" x2="488.5" y2="424.9"/>
		<line fill="none" stroke="#020203" stroke-miterlimit="10" x1="162.1" y1="835.5" x2="162.1" y2="630.9"/>
		<line fill="none" stroke="#020203" stroke-miterlimit="10" x1="161.5" y1="478.9" x2="161.5" y2="324.9"/>
	</g>
	<g id="Randitems">
		<text x="438" y="980" style="font-family: Verdana; font-size: 32pt; stroke: none; fill: black;">Voorzijde</text>
		<text x="450" y="1007" style="font-family: Verdana; font-size: 13pt; stroke: none; fill: black;">Gebouw D 2e etage</text>
		<text x="400" y="040" style="font-family: Verdana; font-size: 32pt; stroke: none; fill: black;">Achterzijde</text>
		
		<text x="445" y="760" style="font-family: Verdana; font-size: 10pt; stroke: none; fill: black;">D2.01</text>
		<text x="500" y="530" style="font-family: Verdana; font-size: 10pt; stroke: none; fill: black;">D2.02</text>
		<text x="445" y="410" style="font-family: Verdana; font-size: 10pt; stroke: none; fill: black;">D2.03</text>
		<text x="405" y="310" style="font-family: Verdana; font-size: 10pt; stroke: none; fill: black;">D2.04</text>
		
		<text x="270" y="310" style="font-family: Verdana; font-size: 10pt; stroke: none; fill: black;">D2.06</text>
		<text x="105" y="465" style="font-family: Verdana; font-size: 10pt; stroke: none; fill: black;">D2.07</text>
		<text x="160" y="615" style="font-family: Verdana; font-size: 10pt; stroke: none; fill: black;">D2.08</text>
		<text x="105" y="820" style="font-family: Verdana; font-size: 10pt; stroke: none; fill: black;">D2.09</text>
		<text x="160" y="860" style="font-family: Verdana; font-size: 10pt; stroke: none; fill: black;">D2.10</text>
		
		<text x="220" y="355" style="font-family: Verdana; font-size: 10pt; stroke: none; fill: black;">D2.14</text>
	</g>	
</g>
</svg>
